<svg width="20" height="15" viewBox="0 0 20 15" fill="none" xmlns="http://www.w3.org/2000/svg">
<path d="M11.0572 0.557313C11.3072 0.307352 11.6463 0.166931 11.9998 0.166931C12.3534 0.166931 12.6925 0.307352 12.9425 0.557313L18.9425 6.55731C19.1925 6.80735 19.3329 7.14643 19.3329 7.49998C19.3329 7.85353 19.1925 8.19261 18.9425 8.44265L12.9425 14.4426C12.691 14.6855 12.3542 14.8199 12.0046 14.8169C11.655 14.8138 11.3206 14.6736 11.0734 14.4264C10.8262 14.1792 10.686 13.8448 10.6829 13.4952C10.6799 13.1456 10.8143 12.8088 11.0572 12.5573L14.6665 8.83331H1.99984C1.64622 8.83331 1.30708 8.69284 1.05703 8.44279C0.80698 8.19274 0.666504 7.8536 0.666504 7.49998C0.666504 7.14636 0.80698 6.80722 1.05703 6.55717C1.30708 6.30712 1.64622 6.16665 1.99984 6.16665H14.6665L11.0572 2.44265C10.8072 2.19261 10.6668 1.85353 10.6668 1.49998C10.6668 1.14643 10.8072 0.80735 11.0572 0.557313Z" fill="white"/>
</svg>
