<svg width="16" height="17" viewBox="0 0 16 17" fill="none" xmlns="http://www.w3.org/2000/svg">
<path d="M3.33333 14.5C2.96667 14.5 2.65289 14.3696 2.392 14.1087C2.13111 13.8478 2.00044 13.5338 2 13.1667V3.83333C2 3.46667 2.13067 3.15289 2.392 2.892C2.65333 2.63111 2.96711 2.50044 3.33333 2.5H8V3.83333H3.33333V13.1667H12.6667V8.5H14V13.1667C14 13.5333 13.8696 13.8473 13.6087 14.1087C13.3478 14.37 13.0338 14.5004 12.6667 14.5H3.33333ZM6.46667 10.9667L5.53333 10.0333L11.7333 3.83333H9.33333V2.5H14V7.16667H12.6667V4.76667L6.46667 10.9667Z" fill="#2684FF"/>
</svg>
