<svg width="60" height="60" viewBox="0 0 60 60" fill="none" xmlns="http://www.w3.org/2000/svg">
<g clip-path="url(#clip0_65_1021)">
<path fill-rule="evenodd" clip-rule="evenodd" d="M47.6825 60H12.2204C5.49949 60 0 54.4921 0 47.7602V12.2398C0 5.50786 5.49949 0 12.2204 0H47.6825C54.4034 0 59.9023 5.50786 59.9023 12.2398V47.7602C59.9023 54.4921 54.4034 60 47.6825 60Z" fill="#42CE9F"/>
<path fill-rule="evenodd" clip-rule="evenodd" d="M25.3207 25.8281C25.2973 30.8078 25.2847 35.6534 25.2973 38.5528C29.6276 38.3178 31.7723 37.4357 33.4689 35.3974C34.6717 33.9523 34.9321 32.2968 34.2026 30.7363C33.2481 28.6956 30.4417 26.5402 25.3207 25.8281ZM22.4729 44.408C21.7032 44.408 20.9647 44.1003 20.4223 43.5535L20.4211 43.5523C19.5699 42.6936 19.5579 41.8722 19.5363 40.3813C19.5255 39.6446 19.5189 38.6008 19.5159 37.3534C19.5111 35.1661 19.5165 32.1309 19.5315 28.3314C19.5579 21.7942 19.6053 15.2775 19.6053 15.2775L25.3831 15.3195C25.3723 16.7635 25.3621 18.3511 25.3519 20.0078C32.1886 20.7973 37.324 23.7664 39.4351 28.2822C41.1197 31.8846 40.548 35.9298 37.9071 39.1032C33.8336 43.9981 28.0486 44.408 22.4729 44.408Z" fill="white"/>
</g>
<defs>
<clipPath id="clip0_65_1021">
<rect width="60" height="60" fill="white"/>
</clipPath>
</defs>
</svg>
