<svg width="60" height="60" viewBox="0 0 60 60" fill="none" xmlns="http://www.w3.org/2000/svg">
<g clip-path="url(#clip0_65_1019)">
<path d="M1.94744 3.00016C1.66686 2.99653 1.38888 3.05438 1.13304 3.16962C0.87719 3.28488 0.649676 3.45475 0.466475 3.6673C0.283274 3.87985 0.148827 4.12993 0.0725771 4.39997C-0.00367309 4.67001 -0.0198783 4.95348 0.0250997 5.23046L8.18578 54.7708C8.28742 55.3771 8.59948 55.9281 9.06706 56.3272C9.53464 56.7262 10.1279 56.9477 10.7426 56.9528H49.8924C50.3532 56.9587 50.8007 56.7989 51.1535 56.5025C51.5063 56.2061 51.7409 55.7928 51.8145 55.338L59.9754 5.24007C60.0205 4.96311 60.0043 4.67967 59.9278 4.40967C59.8515 4.13966 59.717 3.88963 59.5338 3.67713C59.3506 3.46463 59.1231 3.29481 58.8672 3.1796C58.6114 3.0644 58.3334 3.00659 58.0529 3.01023L1.94744 3.00016ZM36.3105 38.805H23.8148L20.4314 21.1285H39.3383L36.3105 38.805Z" fill="#2684FF"/>
<path d="M57.3304 21.1038H39.3033L36.2777 38.7661H23.7922L9.04956 56.2653C9.51684 56.6692 10.1126 56.8939 10.7303 56.899H49.8586C50.319 56.9049 50.7662 56.7453 51.1188 56.4492C51.4714 56.153 51.7058 55.7401 51.7795 55.2856L57.3304 21.1038Z" fill="url(#paint0_linear_65_1019)"/>
</g>
<defs>
<linearGradient id="paint0_linear_65_1019" x1="61.4982" y1="26.0499" x2="40.6743" y2="55.6179" gradientUnits="userSpaceOnUse">
<stop offset="0.18" stop-color="#0052CC"/>
<stop offset="1" stop-color="#2684FF"/>
</linearGradient>
<clipPath id="clip0_65_1019">
<rect width="60" height="60" fill="white"/>
</clipPath>
</defs>
</svg>
