<svg width="60" height="58" viewBox="0 0 60 58" fill="none" xmlns="http://www.w3.org/2000/svg">
<g clip-path="url(#clip0_65_1018)">
<path d="M2.1323 44.184C1.51078 45.1975 0.812774 46.3736 0.219945 47.3106C-0.0351313 47.7417 -0.110917 48.2556 0.00887737 48.7419C0.128671 49.2283 0.434482 49.6482 0.860583 49.9114L13.2909 57.5608C13.5069 57.6942 13.7473 57.7832 13.998 57.8227C14.2488 57.8622 14.5049 57.8514 14.7514 57.7909C14.998 57.7303 15.23 57.6213 15.434 57.4702C15.6379 57.3191 15.8098 57.1289 15.9395 56.9106C16.4367 56.0788 17.0773 54.9983 17.7753 53.8413C22.6996 45.7138 27.6526 46.7083 36.5833 50.9728L48.9084 56.8342C49.1394 56.9441 49.3902 57.0066 49.6458 57.0179C49.9015 57.0292 50.1568 56.9891 50.3966 56.8999C50.6365 56.8108 50.856 56.6744 51.0422 56.4988C51.2283 56.3233 51.3774 56.1122 51.4805 55.878L57.3992 42.4915C57.6002 42.032 57.6126 41.5119 57.4338 41.0433C57.2549 40.5747 56.8991 40.1951 56.4431 39.9863C53.8423 38.7624 48.6693 36.3242 44.0128 34.0772C27.2606 25.9497 13.0231 26.4851 2.1323 44.184Z" fill="url(#paint0_linear_65_1018)"/>
<path d="M57.8678 13.8159C58.4893 12.8023 59.1873 11.6262 59.7801 10.6892C60.0352 10.2581 60.111 9.74421 59.9912 9.25788C59.8714 8.77155 59.5656 8.35163 59.1395 8.08838L46.7092 0.438974C46.4904 0.293186 46.2439 0.19408 45.9851 0.147845C45.7263 0.101609 45.4607 0.109239 45.205 0.170256C44.9493 0.231274 44.7088 0.344369 44.4988 0.502476C44.2887 0.660584 44.1135 0.860308 43.9841 1.08917C43.4869 1.92105 42.8463 3.00152 42.1483 4.1585C37.224 12.286 32.271 11.2916 23.3403 7.02702L11.0534 1.17523C10.8224 1.06526 10.5716 1.00277 10.316 0.991475C10.0604 0.980178 9.80505 1.0203 9.56521 1.10946C9.32536 1.19862 9.10585 1.33501 8.91967 1.51055C8.73349 1.68609 8.58443 1.89721 8.48133 2.1314L2.5626 15.5179C2.36161 15.9774 2.3492 16.4975 2.52806 16.9661C2.70691 17.4347 3.06271 17.8143 3.51878 18.023C6.11958 19.2469 11.2925 21.6852 15.9491 23.9322C32.7395 32.0501 46.9769 31.5147 57.8678 13.8159Z" fill="url(#paint1_linear_65_1018)"/>
</g>
<defs>
<linearGradient id="paint0_linear_65_1018" x1="57.0646" y1="61.5194" x2="19.4582" y2="39.9099" gradientUnits="userSpaceOnUse">
<stop offset="0.18" stop-color="#0052CC"/>
<stop offset="1" stop-color="#2684FF"/>
</linearGradient>
<linearGradient id="paint1_linear_65_1018" x1="2.93551" y1="-3.51959" x2="40.5514" y2="18.09" gradientUnits="userSpaceOnUse">
<stop offset="0.18" stop-color="#0052CC"/>
<stop offset="1" stop-color="#2684FF"/>
</linearGradient>
<clipPath id="clip0_65_1018">
<rect width="60" height="57.7339" fill="white" transform="translate(0 0.133057)"/>
</clipPath>
</defs>
</svg>
