<svg width="60" height="60" viewBox="0 0 60 60" fill="none" xmlns="http://www.w3.org/2000/svg">
<path d="M56.505 0.000244141L51.6853 53.9939L30.0202 59.9999L8.4148 54.0024L3.6001 0.000244141H56.505Z" fill="#264DE4"/>
<path d="M47.5589 50.5559L51.6778 4.41577H30.0525V55.4093L47.5589 50.5559Z" fill="#2965F1"/>
<path d="M14.6377 24.4443L15.2313 31.0674H30.0526V24.4443H14.6377Z" fill="#EBEBEB"/>
<path d="M30.0525 11.0388H30.0296H13.4448L14.0469 17.662H30.0525V11.0388Z" fill="#EBEBEB"/>
<path d="M30.0525 48.536V41.6452L30.0235 41.6529L22.6472 39.6612L22.1757 34.3789H18.5914H15.5271L16.455 44.7782L30.022 48.5445L30.0525 48.536Z" fill="#EBEBEB"/>
<path d="M38.1855 31.0673L37.4167 39.657L30.0298 41.6508V48.5413L43.6076 44.7783L43.7072 43.6593L45.2636 26.2227L45.4252 24.4443L46.6209 11.0388H30.0298V17.662H39.3625L38.7598 24.4443H30.0298V31.0673H38.1855Z" fill="white"/>
</svg>
