<svg width="60" height="60" viewBox="0 0 60 60" fill="none" xmlns="http://www.w3.org/2000/svg">
<path d="M25.8899 19.6825V13L0 26.2558V33.7455L26 47V40.3188L6.76155 29.9733L25.8899 19.6825Z" fill="#C0CA33"/>
<path d="M30 45H37.6891L60 14H52.3645L30 45Z" fill="#C0CA33"/>
<path d="M36.5 15C32.9103 15 30 17.9103 30 21.5C30 25.0897 32.9103 28 36.5 28C40.0897 28 43 25.0897 43 21.5C43 17.909 40.0897 15 36.5 15ZM36.5553 23.6294C35.499 23.6294 34.6434 22.6387 34.6434 21.4177C34.6434 20.1967 35.499 19.206 36.5553 19.206C37.6116 19.206 38.4672 20.1967 38.4672 21.4177C38.4672 22.6387 37.6104 23.6294 36.5553 23.6294Z" fill="#C0CA33"/>
<path d="M52.5 34C48.9103 34 46 36.9103 46 40.5C46 44.0897 48.9103 47 52.5 47C56.0897 47 59 44.0897 59 40.5C59 36.909 56.0897 34 52.5 34ZM52.5553 42.6294C51.499 42.6294 50.6434 41.6387 50.6434 40.4177C50.6434 39.1967 51.499 38.206 52.5553 38.206C53.6116 38.206 54.4672 39.1967 54.4672 40.4177C54.4672 41.6387 53.6104 42.6294 52.5553 42.6294Z" fill="#C0CA33"/>
</svg>
