<svg width="60" height="60" viewBox="0 0 60 60" fill="none" xmlns="http://www.w3.org/2000/svg">
<g clip-path="url(#clip0_65_1016)">
<path d="M20 60.0005C25.52 60.0005 30 55.5203 30 50.0003V40.0002H20C14.48 40.0002 10 44.4803 10 50.0003C10 55.5203 14.48 60.0005 20 60.0005Z" fill="#0ACF83"/>
<path d="M10 30.0001C10 24.4801 14.48 20.0001 20 20.0001H30V40.0001H20C14.48 40.0001 10 35.5201 10 30.0001Z" fill="#A259FF"/>
<path d="M10 10.0002C10 4.48024 14.48 0.000244141 20 0.000244141H30V20.0002H20C14.48 20.0002 10 15.5202 10 10.0002Z" fill="#F24E1E"/>
<path d="M30 0.000244141H40C45.52 0.000244141 50 4.48024 50 10.0002C50 15.5202 45.52 20.0002 40 20.0002H30V0.000244141Z" fill="#FF7262"/>
<path d="M50 30.0001C50 35.5201 45.52 40.0001 40 40.0001C34.48 40.0001 30 35.5201 30 30.0001C30 24.4801 34.48 20.0001 40 20.0001C45.52 20.0001 50 24.4801 50 30.0001Z" fill="#1ABCFE"/>
</g>
<defs>
<clipPath id="clip0_65_1016">
<rect width="60" height="60" fill="white"/>
</clipPath>
</defs>
</svg>
