<svg width="60" height="60" viewBox="0 0 60 60" fill="none" xmlns="http://www.w3.org/2000/svg">
<g clip-path="url(#clip0_65_1017)">
<path d="M10.625 0.599976H49.375C55.25 0.599976 60 5.34998 60 11.225V48.475C60 54.35 55.25 59.1 49.375 59.1H10.625C4.75 59.1 0 54.35 0 48.475V11.225C0 5.34998 4.75 0.599976 10.625 0.599976Z" fill="#330000"/>
<path d="M29.0751 35.6999H19.7751L17.8751 41.5749C17.8251 41.7999 17.6251 41.9499 17.4001 41.9249H12.7001C12.4251 41.9249 12.3501 41.7749 12.4251 41.4749L20.4751 18.2999C20.5501 18.05 20.6251 17.7749 20.7251 17.4749C20.8251 16.9499 20.8751 16.4 20.8751 15.8499C20.8501 15.725 20.9501 15.5999 21.0751 15.575C21.1001 15.575 21.1251 15.575 21.1501 15.575H27.5501C27.7501 15.575 27.8501 15.65 27.8751 15.7749L37.0001 41.5249C37.0751 41.7999 37.0001 41.9249 36.7501 41.9249H31.5251C31.3501 41.9499 31.1751 41.8249 31.1251 41.6499L29.0751 35.6999ZM21.2251 30.6249H27.5751C27.4251 30.0999 27.2251 29.4749 27.0001 28.8249C26.7751 28.1499 26.5501 27.425 26.3251 26.675C26.0751 25.8999 25.8501 25.1499 25.6001 24.3749C25.3501 23.6 25.1251 22.8749 24.9251 22.1499C24.7251 21.4499 24.5501 20.7999 24.3751 20.1999H24.3251C24.1001 21.275 23.8251 22.3499 23.4751 23.4249C23.1001 24.6249 22.7251 25.8749 22.3251 27.125C21.9751 28.4 21.6001 29.5749 21.2251 30.6249Z" fill="#FF9A00"/>
<path d="M42.45 19.8499C41.625 19.875 40.825 19.5499 40.225 18.975C39.65 18.3499 39.35 17.5249 39.375 16.675C39.35 15.825 39.675 15.025 40.275 14.4499C40.875 13.875 41.675 13.575 42.5 13.575C43.475 13.575 44.225 13.875 44.775 14.4499C45.325 15.0499 45.625 15.85 45.6 16.675C45.625 17.5249 45.325 18.3499 44.725 18.975C44.15 19.575 43.3 19.9 42.45 19.8499ZM39.65 41.5499V22.3C39.65 22.0499 39.75 21.9499 39.975 21.9499H44.925C45.15 21.9499 45.25 22.075 45.25 22.3V41.5499C45.25 41.8249 45.15 41.95 44.925 41.95H40.025C39.775 41.95 39.65 41.8 39.65 41.5499Z" fill="#FF9A00"/>
</g>
<defs>
<clipPath id="clip0_65_1017">
<rect width="60" height="60" fill="white"/>
</clipPath>
</defs>
</svg>
