<svg width="60" height="60" viewBox="0 0 60 60" fill="none" xmlns="http://www.w3.org/2000/svg">
<g clip-path="url(#clip0_65_1006)">
<path d="M3.51446 40.8158C3.57196 40.9458 3.63695 41.0658 3.70696 41.1858C3.73946 41.2558 3.78446 41.3283 3.82446 41.3933C3.88946 41.5233 3.95946 41.6483 4.02696 41.7733L4.41946 42.4333C4.49197 42.5558 4.56197 42.6758 4.64447 42.7958C4.78197 43.0308 4.94447 43.2608 5.08697 43.4958C5.15197 43.5933 5.21197 43.6909 5.28448 43.7884C5.55947 44.2159 5.80948 44.5708 6.07698 44.9158C6.267 45.1733 6.45696 45.4258 6.66198 45.6784C6.72948 45.7733 6.80448 45.8684 6.8745 45.9634L7.42698 46.6334C7.49448 46.7108 7.56198 46.8008 7.63452 46.8809C7.8795 47.1758 8.13948 47.4608 8.39952 47.7509C8.39952 47.7559 8.40702 47.7609 8.412 47.7684C8.7345 48.1734 9.08202 48.5334 9.462 48.8534L9.47202 48.8634C9.672 49.0684 9.87204 49.2709 10.0845 49.4709L10.337 49.7134C10.6145 49.9734 10.892 50.2309 11.1845 50.4809C11.1895 50.4809 11.192 50.4859 11.197 50.4884L11.3395 50.6134C11.5945 50.8359 11.852 51.0559 12.1145 51.2609L12.4271 51.5234C12.6395 51.6934 12.8596 51.8534 13.0771 52.0209L13.4171 52.2809C13.6496 52.4559 13.8971 52.6259 14.1346 52.7959C14.222 52.8584 14.3096 52.9209 14.3996 52.9784L14.4721 53.0359L15.1746 53.4959L15.4746 53.6959C15.8421 53.9309 16.2071 54.1509 16.5721 54.3709C16.6771 54.4234 16.7821 54.481 16.8796 54.541C17.1496 54.6959 17.4296 54.8534 17.7021 54.9959C17.8521 55.081 18.0071 55.1534 18.1621 55.231C18.3496 55.336 18.5446 55.4384 18.7446 55.5434C18.7996 55.561 18.8446 55.5784 18.8896 55.6034L18.8996 55.5934C18.9821 55.6309 19.0596 55.6709 19.1396 55.711C19.4396 55.861 19.7521 56.0035 20.0771 56.1434C20.1371 56.1685 20.2021 56.1934 20.2672 56.2285C20.6272 56.386 20.9872 56.536 21.3596 56.6809C21.4447 56.7059 21.5347 56.7484 21.6221 56.7809C21.9596 56.9084 22.3072 57.0385 22.6522 57.161L22.7771 57.206C23.1596 57.3359 23.5372 57.461 23.9272 57.5785C24.0172 57.6035 24.1097 57.6359 24.2047 57.661C24.6022 57.781 24.9872 57.9235 25.3897 57.9985C51.0725 62.6562 58.535 42.6333 58.535 42.6333C52.265 50.7584 41.1374 52.9009 30.5998 50.5159C30.2098 50.4259 29.8198 50.3009 29.4247 50.1859C28.8672 50.0281 28.3145 49.8539 27.7672 49.6634L28.0047 49.7359L27.8497 49.6759C27.5097 49.5609 27.1822 49.4334 26.8497 49.3059C26.7683 49.2713 26.6858 49.2397 26.6022 49.2109L26.5747 49.2034C26.2072 49.0559 25.8497 48.9059 25.4947 48.7484C25.4172 48.7234 25.3522 48.6884 25.2747 48.6584C24.8542 48.4751 24.4375 48.2834 24.0247 48.0834L24.3697 48.2359C24.2797 48.1961 24.1913 48.1527 24.1047 48.1059C23.8697 47.9959 23.6347 47.8709 23.4047 47.7534C23.2295 47.6704 23.0569 47.582 22.8872 47.4884L22.9372 47.5133C22.6547 47.3633 22.3721 47.2009 22.0871 47.0483C22.0022 46.9883 21.9047 46.9384 21.8072 46.8833C21.3835 46.6372 20.9651 46.3821 20.5522 46.1183L20.7097 46.2134C20.6038 46.148 20.5004 46.0788 20.3996 46.0058L20.4146 46.0159C20.146 45.8508 19.8824 45.6774 19.6246 45.4958C19.5396 45.4408 19.4621 45.3808 19.3746 45.3208C19.1053 45.137 18.8402 44.947 18.5796 44.7508L18.6396 44.7934C18.5346 44.7083 18.4221 44.6284 18.3096 44.5459C18.0896 44.3734 17.8671 44.2084 17.6471 44.0284L17.3521 43.7933C17.0377 43.5432 16.7293 43.2856 16.4271 43.0208L16.4246 43.0183L15.5571 42.2308L15.3071 41.9958C15.1021 41.7883 14.8921 41.5908 14.6821 41.3858L14.4396 41.1358C14.1808 40.8795 13.9282 40.6169 13.682 40.3483L13.667 40.3308L13.6246 40.2958C13.3598 40.0051 13.099 39.7109 12.842 39.4133C12.7745 39.3358 12.7121 39.2533 12.6421 39.1708L12.0745 38.4833C11.8187 38.162 11.5687 37.8361 11.3245 37.5058L11.2246 37.3658C5.37947 29.4257 3.26445 18.4681 7.94202 9.47803L3.81196 14.7005C-1.5006 22.2982 -0.84309 32.1782 3.21945 40.2458C3.31195 40.4433 3.41446 40.6283 3.51446 40.8158Z" fill="#1266A9"/>
<path d="M21.4072 29.8707L21.3797 29.8307L21.3572 29.8007L21.4072 29.8707Z" fill="black"/>
<path d="M24.2021 33.1506L24.4271 33.3756C24.7121 33.6506 25.0046 33.9181 25.3021 34.1856L25.3396 34.2181C25.6396 34.4831 25.9771 34.7606 26.3246 35.0306L26.3771 35.0706C26.4621 35.1281 26.5346 35.1956 26.6171 35.2531C26.9671 35.5231 27.3196 35.7806 27.6871 36.0381L27.7246 36.0606C27.8796 36.1731 28.0446 36.2756 28.2196 36.3857C28.2896 36.4307 28.3696 36.4907 28.4446 36.5357C28.7096 36.7056 28.9696 36.8631 29.2371 37.0256C29.2796 37.0431 29.3171 37.0657 29.3571 37.0832C29.5821 37.2206 29.8271 37.3532 30.0621 37.4732C30.1446 37.5231 30.2247 37.5606 30.3096 37.6082C30.4771 37.6907 30.6421 37.7781 30.8022 37.8632L30.8821 37.8981C31.2196 38.0631 31.5646 38.2181 31.9021 38.3706C31.9872 38.4032 32.0596 38.4306 32.1322 38.4657C32.4097 38.5857 32.6922 38.7006 32.9697 38.8056C33.0946 38.8482 33.2122 38.8982 33.3297 38.9357C33.5847 39.0306 33.8522 39.1182 34.1047 39.2057L34.4547 39.3182C34.8197 39.4307 35.1897 39.5781 35.5772 39.6381C55.4099 42.9032 59.9999 27.7106 59.9999 27.7106C55.8674 33.6281 47.8698 36.4481 39.3472 34.2456C38.9218 34.1383 38.4999 34.0174 38.0822 33.8831L38.2247 33.9231C38.1047 33.8906 37.9997 33.8531 37.8847 33.8181C37.6247 33.7281 37.3572 33.6406 37.1047 33.5481L36.7447 33.4131C36.4647 33.3006 36.1797 33.1956 35.9072 33.0756C35.8222 33.0381 35.7447 33.0131 35.6797 32.9756C35.3297 32.8181 34.9772 32.6631 34.6347 32.4981L34.1197 32.2306L33.8222 32.0806C33.5922 31.9606 33.3796 31.8356 33.1597 31.7081C33.1036 31.6817 33.0493 31.6517 32.9971 31.6181L33.0046 31.6206C32.7397 31.4556 32.4646 31.2956 32.2096 31.1281C32.1247 31.0806 32.0472 31.0231 31.9672 30.9731L31.4472 30.6356C31.0872 30.3856 30.7347 30.1181 30.3771 29.8581C30.2971 29.7855 30.2196 29.7255 30.1422 29.6606C26.3946 26.7281 23.4396 22.7205 22.0371 18.1829C20.5596 13.4654 20.8845 8.17535 23.437 3.88281L20.2995 8.30285C16.447 13.8054 16.6645 21.1605 19.6645 26.9805C20.212 28.0556 20.767 28.9631 21.3795 29.8281C21.9496 30.6431 22.5796 31.5981 23.3395 32.2531C23.6096 32.5606 23.8996 32.8531 24.2021 33.1506Z" fill="#1266A9"/>
<path d="M34.1648 3.51784C31.8923 6.83534 31.6748 10.9554 33.2398 14.613C34.9023 18.498 38.2998 21.548 42.2599 22.993C42.4224 23.0555 42.5799 23.108 42.7474 23.168L42.9674 23.2355C43.1974 23.308 43.4299 23.393 43.6674 23.4456C54.62 25.5481 57.585 17.8505 58.3826 16.7179C55.775 20.443 51.4025 21.338 46.0374 20.0405C45.5709 19.9267 45.1118 19.7848 44.6624 19.6155L44.7449 19.643C44.1858 19.4495 43.6382 19.2241 43.1049 18.968L43.1999 19.0105C42.1749 18.5105 41.2949 17.9705 40.4774 17.3505C35.6823 13.7254 32.7173 6.82286 35.8473 1.20032L34.1648 3.51784Z" fill="#1266A9"/>
</g>
<defs>
<clipPath id="clip0_65_1006">
<rect width="60" height="60" fill="white"/>
</clipPath>
</defs>
</svg>
