<svg width="60" height="60" viewBox="0 0 60 60" fill="none" xmlns="http://www.w3.org/2000/svg">
<g clip-path="url(#clip0_65_1249)">
<path d="M60 0.000488281H0V60.0002H60V0.000488281Z" fill="#F7DF1E"/>
<path d="M40.3047 46.8755C41.5133 48.8488 43.0857 50.2993 45.8667 50.2993C48.2028 50.2993 49.6952 49.1317 49.6952 47.5183C49.6952 45.585 48.1619 44.9003 45.5905 43.7755L44.1809 43.1707C40.1124 41.4374 37.4095 39.266 37.4095 34.6755C37.4095 30.447 40.6314 27.2279 45.6666 27.2279C49.2514 27.2279 51.8286 28.4755 53.6857 31.7422L49.2952 34.5612C48.3285 32.8279 47.2857 32.145 45.6666 32.145C44.0153 32.145 42.9686 33.1927 42.9686 34.5612C42.9686 36.2527 44.0162 36.9374 46.4352 37.9851L47.8448 38.5888C52.6352 40.6431 55.34 42.7374 55.34 47.446C55.34 52.5222 51.3524 55.3031 45.9971 55.3031C40.7609 55.3031 37.3781 52.8079 35.7228 49.5374L40.3047 46.8755ZM20.3876 47.3641C21.2733 48.9355 22.079 50.2641 24.0162 50.2641C25.8686 50.2641 27.0371 49.5393 27.0371 46.7212V27.5498H32.6752V46.7974C32.6752 52.6355 29.2524 55.2927 24.2562 55.2927C19.7419 55.2927 17.1276 52.9564 15.7981 50.1427L20.3876 47.3641Z" fill="black"/>
</g>
<defs>
<clipPath id="clip0_65_1249">
<rect width="60" height="60" fill="white"/>
</clipPath>
</defs>
</svg>
