<svg width="60" height="60" viewBox="0 0 60 60" fill="none" xmlns="http://www.w3.org/2000/svg">
<g clip-path="url(#clip0_65_1014)">
<path d="M27.7671 0.640361C29.2548 -0.211204 31.1926 -0.21505 32.679 0.640361C40.1572 4.86591 47.6377 9.08485 55.1146 13.3129C56.5208 14.1051 57.4615 15.6702 57.4472 17.2906V42.7131C57.4577 44.4007 56.4241 46.0032 54.9404 46.7773C47.4868 50.9796 40.0371 55.187 32.5848 59.3892C31.0663 60.2574 29.0896 60.1908 27.6186 59.2512C25.384 57.9558 23.1456 56.6668 20.9108 55.3727C20.4541 55.1004 19.9393 54.8838 19.6169 54.441C19.9019 54.0568 20.4116 54.0089 20.8258 53.8411C21.7585 53.5446 22.6152 53.0685 23.4721 52.6065C23.6888 52.4581 23.9533 52.515 24.161 52.6477C26.0719 53.7433 27.9658 54.8707 29.8831 55.9558C30.2921 56.192 30.7062 55.8785 31.0558 55.6836C38.3701 51.5497 45.6933 47.4315 53.0063 43.2963C53.2772 43.1659 53.4271 42.8783 53.405 42.5815C53.4101 34.1952 53.4063 25.8073 53.4076 17.421C53.4386 17.0842 53.2437 16.7745 52.9392 16.6367C45.5114 12.4537 38.0876 8.26423 30.6611 4.08016C30.5324 3.9917 30.38 3.94424 30.2239 3.94401C30.0677 3.94379 29.9152 3.9908 29.7863 4.07888C22.3598 8.26423 14.9372 12.4575 7.5108 16.6404C7.20738 16.7784 7.00368 17.0829 7.0398 17.421C7.04112 25.8073 7.0398 34.1952 7.0398 42.5828C7.02696 42.7276 7.05876 42.8729 7.13094 42.9991C7.20318 43.1253 7.31232 43.2264 7.44372 43.2886C9.42546 44.4124 11.4098 45.5283 13.3929 46.6483C14.51 47.2496 15.8818 47.6069 17.1126 47.1462C18.1988 46.7566 18.9602 45.6482 18.9395 44.4949C18.9497 36.1575 18.9344 27.8188 18.9472 19.4827C18.92 19.1125 19.2711 18.8068 19.631 18.8416C20.5832 18.8352 21.5367 18.8288 22.4889 18.8442C22.8864 18.8352 23.1599 19.2337 23.1107 19.6066C23.1069 27.9968 23.121 36.3872 23.1043 44.7774C23.1069 47.0135 22.1882 49.4466 20.1199 50.5407C17.5718 51.8607 14.4224 51.5807 11.9051 50.315C9.72594 49.2273 7.64628 47.9437 5.50572 46.7784C4.01821 46.0085 2.98971 44.3996 3.00018 42.7134V17.2906C2.98458 15.6366 3.96265 14.0431 5.41277 13.2625C12.8651 9.05683 20.3161 4.84796 27.7671 0.640361Z" fill="#8CC84B"/>
<path d="M34.2684 18.2507C37.5187 18.0415 40.9982 18.1268 43.923 19.728C46.1876 20.955 47.443 23.5302 47.483 26.046C47.4197 26.3853 47.0649 26.5725 46.741 26.5493C45.798 26.5479 44.8547 26.562 43.9117 26.5428C43.5117 26.5582 43.2792 26.1894 43.229 25.8357C42.958 24.632 42.3015 23.4398 41.1686 22.8592C39.4293 21.9884 37.4127 22.0322 35.5162 22.0504C34.1317 22.1239 32.6429 22.2438 31.4699 23.0579C30.5694 23.6747 30.2959 24.9196 30.6173 25.9223C30.9203 26.6422 31.7514 26.8745 32.4313 27.0886C36.3483 28.113 40.4991 28.0111 44.3412 29.3593C45.932 29.9089 47.4881 30.9774 48.0326 32.6429C48.7448 34.8751 48.4326 37.5432 46.8444 39.3353C45.5565 40.81 43.6807 41.6126 41.8098 42.0485C39.321 42.6035 36.7381 42.6176 34.2105 42.3712C31.8338 42.1002 29.3606 41.4758 27.5258 39.8565C25.9569 38.4942 25.1906 36.3716 25.2666 34.3229C25.2848 33.977 25.6293 33.7357 25.9607 33.7641C26.9104 33.7565 27.86 33.7539 28.8097 33.7654C29.189 33.7383 29.4702 34.0661 29.4896 34.4236C29.6649 35.5704 30.0959 36.7742 31.0959 37.4541C33.026 38.6993 35.4478 38.6141 37.6578 38.6489C39.4887 38.5677 41.544 38.5431 43.0382 37.333C43.8264 36.6428 44.06 35.488 43.847 34.4945C43.6162 33.6558 42.7388 33.2649 41.9853 33.0093C38.1185 31.7862 33.9214 32.23 30.092 30.8468C28.5374 30.2974 27.0341 29.2586 26.4368 27.6615C25.6034 25.401 25.9853 22.6051 27.74 20.8736C29.4507 19.1512 31.9204 18.4881 34.2684 18.2507Z" fill="#8CC84B"/>
</g>
<defs>
<clipPath id="clip0_65_1014">
<rect width="60" height="60" fill="white"/>
</clipPath>
</defs>
</svg>
