<svg width="60" height="60" viewBox="0 0 60 60" fill="none" xmlns="http://www.w3.org/2000/svg">
<g clip-path="url(#clip0_65_1011)">
<path d="M0 0H60V60H0V0ZM7.73357 7.35857C7.73357 21.8243 7.73357 36.2907 7.73357 50.7579H15.1886C15.1886 44.4621 15.1886 38.1657 15.1886 31.8686C17 38.1657 18.8114 44.4621 20.6229 50.7579C23.1043 50.7579 25.5857 50.7579 28.0671 50.7579C28.0671 36.2921 28.0671 21.8257 28.0671 7.35857C25.5643 7.35857 23.0614 7.35857 20.5671 7.35857C20.5671 13.2707 20.5671 19.1829 20.5671 25.0971C18.7586 19.1829 16.945 13.27 15.1264 7.35857C12.6621 7.35857 10.1979 7.35857 7.73357 7.35857ZM44.7086 17.6443C44.7086 26.1729 44.7086 34.7014 44.7086 43.23H39.2914C39.2914 40.605 39.2914 37.98 39.2914 35.355C36.7843 35.9421 34.2729 36.5164 31.7636 37.0993C31.7636 39.7336 31.7636 42.3679 31.7636 45.0021C31.7145 45.7917 31.77 46.5843 31.9286 47.3593C32.2194 48.42 32.874 49.3447 33.7779 49.9714C34.5282 50.4925 35.4207 50.7701 36.3343 50.7664C39.7357 50.7664 43.1379 50.7664 46.5407 50.7664C47.3163 50.8129 48.0947 50.7553 48.855 50.595C49.9576 50.2749 50.9069 49.5662 51.5271 48.6C52.0211 47.828 52.2719 46.9255 52.2471 46.0093C52.2471 36.5564 52.2471 27.1036 52.2471 17.6507L44.7086 17.6443Z" fill="#1C4913"/>
<path d="M7.73364 7.35852C10.1979 7.35852 12.6622 7.35852 15.1265 7.35852C16.9422 13.2714 18.7551 19.1849 20.5651 25.0992C20.5501 19.1871 20.5651 13.2749 20.5651 7.36066C23.0679 7.36066 25.5708 7.36066 28.0651 7.36066C28.0651 21.8264 28.0651 36.2928 28.0651 50.7599C25.5836 50.7599 23.1022 50.7599 20.6208 50.7599C18.8065 44.4642 16.9951 38.1678 15.1865 31.8707C15.1865 38.1678 15.1865 44.4642 15.1865 50.7599H7.73364C7.73364 36.2928 7.73364 21.8257 7.73364 7.35852Z" fill="#FEFFFC"/>
<path d="M44.7108 17.6422H52.2408C52.2408 27.0951 52.2408 36.5479 52.2408 46.0008C52.2656 46.917 52.0147 47.8195 51.5208 48.5915C50.9005 49.5577 49.9512 50.2664 48.8486 50.5865C48.0883 50.7468 47.31 50.8044 46.5343 50.7579C43.1315 50.7579 39.7293 50.7579 36.3279 50.7579C35.4144 50.7616 34.5219 50.484 33.7715 49.9629C32.8713 49.3367 32.2191 48.4146 31.9286 47.3572C31.77 46.5822 31.7146 45.7896 31.7636 45.0001C31.7636 42.3658 31.7636 39.7315 31.7636 37.0972C34.2729 36.5122 36.7844 35.9379 39.2915 35.3529C39.2915 37.9779 39.2915 40.6029 39.2915 43.2279H44.7108C44.7108 34.6951 44.7108 26.1665 44.7108 17.6422Z" fill="#FEFFFC"/>
</g>
<defs>
<clipPath id="clip0_65_1011">
<rect width="60" height="60" fill="white"/>
</clipPath>
</defs>
</svg>
