<svg width="60" height="60" viewBox="0 0 60 60" fill="none" xmlns="http://www.w3.org/2000/svg">
<g clip-path="url(#clip0_65_1015)">
<path d="M10.625 0.600342H49.375C55.25 0.600342 60 5.35034 60 11.2253V48.4754C60 54.3503 55.25 59.1003 49.375 59.1003H10.625C4.75 59.1003 0 54.3503 0 48.4754V11.2253C0 5.35034 4.75 0.600342 10.625 0.600342Z" fill="#001E36"/>
<path d="M13.5 41.6254V15.9004C13.5 15.7254 13.575 15.6253 13.75 15.6253C14.175 15.6253 14.575 15.6253 15.15 15.6004C15.75 15.5754 16.375 15.5754 17.05 15.5503C17.725 15.5254 18.45 15.5254 19.225 15.5004C20 15.4753 20.75 15.4753 21.5 15.4753C23.55 15.4753 25.25 15.7254 26.65 16.2504C27.9 16.6753 29.05 17.3754 30 18.3004C30.8 19.1004 31.425 20.0754 31.825 21.1504C32.2 22.2004 32.4 23.2753 32.4 24.4003C32.4 26.5504 31.9 28.3254 30.9 29.7253C29.9 31.1254 28.5 32.1754 26.875 32.7754C25.175 33.4003 23.3 33.6253 21.25 33.6253C20.65 33.6253 20.25 33.6253 20 33.6004C19.75 33.5754 19.4 33.5754 18.925 33.5754V41.6004C18.95 41.7754 18.825 41.9254 18.65 41.9503C18.625 41.9503 18.6 41.9503 18.55 41.9503H13.8C13.6 41.9503 13.5 41.8504 13.5 41.6254ZM18.95 20.4504V28.8504C19.3 28.8754 19.625 28.9003 19.925 28.9003H21.25C22.225 28.9003 23.2 28.7503 24.125 28.4503C24.925 28.2253 25.625 27.7504 26.175 27.1254C26.7 26.5003 26.95 25.6504 26.95 24.5503C26.975 23.7754 26.775 23.0004 26.375 22.3254C25.95 21.6754 25.35 21.1753 24.625 20.9004C23.7 20.5254 22.7 20.3754 21.675 20.4004C21.025 20.4004 20.45 20.4004 19.975 20.4253C19.475 20.4004 19.125 20.4253 18.95 20.4504Z" fill="#31A8FF"/>
<path d="M48 27.3253C47.25 26.9253 46.4499 26.6503 45.6 26.4753C44.675 26.2753 43.7499 26.1503 42.8 26.1503C42.3 26.1253 41.775 26.2003 41.3 26.3253C40.9749 26.4003 40.7 26.5753 40.5249 26.8253C40.4 27.0253 40.325 27.2753 40.325 27.5003C40.325 27.7253 40.425 27.9503 40.575 28.1503C40.8 28.4253 41.1 28.6503 41.4249 28.8253C42 29.1253 42.6 29.4003 43.2 29.6503C44.55 30.1003 45.8499 30.7253 47.0499 31.4753C47.8749 32.0003 48.5499 32.7003 49.025 33.5503C49.425 34.3503 49.625 35.2253 49.5999 36.1253C49.625 37.3003 49.275 38.4753 48.6249 39.4503C47.925 40.4503 46.95 41.2253 45.825 41.6753C44.6 42.2003 43.1 42.4753 41.3 42.4753C40.1499 42.4753 39.0249 42.3753 37.8999 42.1503C37.025 42.0003 36.15 41.7253 35.3499 41.3503C35.175 41.2503 35.0499 41.0753 35.075 40.8753V36.5253C35.075 36.4503 35.1 36.3503 35.175 36.3003C35.25 36.2503 35.325 36.2753 35.4 36.3253C36.375 36.9003 37.4 37.3003 38.4999 37.5503C39.45 37.8003 40.4499 37.9253 41.45 37.9253C42.3999 37.9253 43.0749 37.8003 43.5249 37.5753C43.925 37.4003 44.1999 36.9753 44.1999 36.5253C44.1999 36.1753 44 35.8503 43.5999 35.5253C43.2 35.2003 42.375 34.8253 41.15 34.3503C39.875 33.9003 38.7 33.3003 37.5999 32.5503C36.825 32.0003 36.1749 31.2753 35.7 30.4253C35.3 29.6253 35.1 28.7503 35.1249 27.8753C35.1249 26.8003 35.4249 25.7753 35.975 24.8503C36.6 23.8503 37.5249 23.0503 38.6 22.5503C39.7749 21.9503 41.25 21.6753 43.025 21.6753C44.0499 21.6753 45.0999 21.7503 46.125 21.9003C46.875 22.0003 47.6 22.2003 48.275 22.4753C48.375 22.5003 48.4749 22.6003 48.525 22.7003C48.5499 22.8003 48.575 22.9003 48.575 23.0003V27.0753C48.575 27.1753 48.525 27.2753 48.45 27.3253C48.225 27.3753 48.0999 27.3753 48 27.3253Z" fill="#31A8FF"/>
</g>
<defs>
<clipPath id="clip0_65_1015">
<rect width="60" height="60" fill="white"/>
</clipPath>
</defs>
</svg>
