<svg width="60" height="60" viewBox="0 0 60 60" fill="none" xmlns="http://www.w3.org/2000/svg">
<path fill-rule="evenodd" clip-rule="evenodd" d="M30 45.4066C46.5686 45.4066 60 38.5997 60 30.2034C60 21.8072 46.5686 15.0002 30 15.0002C13.4318 15.0002 0 21.8072 0 30.2034C0 38.5997 13.4318 45.4066 30 45.4066Z" fill="#6E81B6"/>
<path fill-rule="evenodd" clip-rule="evenodd" d="M36.0799 35.1172L37.568 27.4585C37.9039 25.7299 37.6246 24.4407 36.7383 23.6259C35.8797 22.8376 34.4221 22.4542 32.2825 22.4542H29.7054L30.4425 18.6597C30.4563 18.589 30.4543 18.5162 30.4367 18.4464C30.4191 18.3767 30.3862 18.3117 30.3404 18.2562C30.2947 18.2006 30.2372 18.1558 30.1722 18.1251C30.1071 18.0944 30.036 18.0785 29.964 18.0785H26.4071C26.1735 18.0785 25.9729 18.2443 25.9282 18.4735L24.3477 26.6042C24.204 25.6893 23.85 24.9028 23.2833 24.2539C22.24 23.0596 20.5898 22.4542 18.378 22.4542H11.484C11.2504 22.4542 11.0498 22.62 11.0052 22.8489L7.80668 39.3068C7.77872 39.4501 7.8161 39.5974 7.90898 39.7099C8.00144 39.8227 8.13932 39.8876 8.28554 39.8876H11.8704C12.104 39.8876 12.3046 39.7218 12.3492 39.4922L13.123 35.5115H15.7915C17.1918 35.5115 18.3686 35.3599 19.2871 35.061C20.2263 34.7556 21.0908 34.2375 21.8526 33.5244C22.4682 32.9588 22.9768 32.3254 23.3682 31.6423L22.7294 34.9304C22.7014 35.0737 22.7388 35.2217 22.8317 35.3335C22.9242 35.4463 23.0624 35.5112 23.2083 35.5112H26.7652C26.9988 35.5112 27.1994 35.3454 27.244 35.1165L28.9995 26.0826H31.4401C32.4802 26.0826 32.7849 26.2897 32.868 26.3786C32.9431 26.4598 33.0991 26.746 32.9238 27.6483L31.5091 34.93C31.4955 35.0007 31.4977 35.0734 31.5154 35.143C31.5333 35.2127 31.5662 35.2775 31.6119 35.333C31.6576 35.3885 31.7151 35.4332 31.78 35.464C31.845 35.4947 31.916 35.5107 31.9879 35.5108H35.6014C35.7145 35.5111 35.8241 35.4719 35.9114 35.4001C35.9988 35.3283 36.0583 35.2282 36.0799 35.1172ZM19.5893 28.7892C19.3659 29.9373 18.945 30.7561 18.3378 31.2229C17.7211 31.6985 16.7347 31.9394 15.4059 31.9394H13.8169L14.9658 26.0271H17.0202C18.5293 26.0271 19.1373 26.3496 19.3815 26.6198C19.7199 26.9949 19.7917 27.7455 19.5893 28.7892ZM51.0625 24.2539C50.0196 23.0596 48.3693 22.4542 46.1575 22.4542H39.2635C39.0295 22.4542 38.8293 22.62 38.7847 22.8489L35.5866 39.3068C35.5582 39.4501 35.5956 39.5974 35.6885 39.7099C35.7813 39.8223 35.9196 39.8876 36.0646 39.8876H39.6499C39.8839 39.8876 40.0841 39.7218 40.1287 39.4922L40.9025 35.5115H43.5714C44.972 35.5115 46.1478 35.3599 47.0667 35.061C48.0062 34.7556 48.8707 34.2375 49.6321 33.5244C50.2677 32.9407 50.7904 32.2844 51.1866 31.5759C51.5827 30.8674 51.8667 30.0773 52.0326 29.227C52.4399 27.1298 52.1138 25.4568 51.0625 24.2539ZM47.5723 28.7892C47.3485 29.9373 46.9277 30.7561 46.3212 31.2229C45.7041 31.6985 44.7177 31.9394 43.3893 31.9394H41.8L42.9485 26.0271H45.0032C46.5123 26.0271 47.1203 26.3496 47.3648 26.6198C47.7025 26.9949 47.7747 27.7455 47.5723 28.7892Z" fill="white"/>
<path fill-rule="evenodd" clip-rule="evenodd" d="M16.9182 25.5392C18.28 25.5392 19.188 25.7906 19.6418 26.2934C20.0953 26.7962 20.2034 27.6596 19.9661 28.8825C19.718 30.1562 19.2406 31.0652 18.5332 31.6102C17.8258 32.155 16.7491 32.4271 15.3039 32.4271H13.1229L14.4616 25.5392H16.9182ZM8.18311 39.3998H11.768L12.6187 35.0245H15.6895C17.0444 35.0245 18.1592 34.8819 19.0342 34.5971C19.9092 34.3124 20.7047 33.8353 21.4205 33.1653C22.0212 32.6135 22.5073 32.0041 22.8796 31.3381C23.2514 30.672 23.5154 29.9374 23.6718 29.1339C24.0513 27.1829 23.765 25.6633 22.8139 24.575C21.863 23.4863 20.35 22.9422 18.276 22.9422H11.382L8.18311 39.3998ZM26.3048 18.5665H29.8617L29.0114 22.9422H32.1805C34.1735 22.9422 35.5495 23.2897 36.3062 23.9852C37.063 24.6806 37.2897 25.8077 36.9872 27.3658L35.4991 35.0245H31.8856L33.3004 27.7423C33.4611 26.9138 33.4023 26.3489 33.1226 26.0475C32.8429 25.7464 32.2476 25.5955 31.3378 25.5955H28.4951L26.6628 35.0245H23.1059L26.3048 18.5665ZM44.9013 25.5392C46.2631 25.5392 47.1707 25.7906 47.625 26.2934C48.0784 26.7962 48.1861 27.6596 47.9489 28.8825C47.7015 30.1562 47.2241 31.0652 46.5163 31.6102C45.8093 32.155 44.7322 32.4271 43.2877 32.4271H41.1067L42.445 25.5392H44.9013ZM36.1655 39.3998H39.7507L40.601 35.0245H43.6718C45.0272 35.0245 46.142 34.8819 47.017 34.5971C47.8919 34.3124 48.6875 33.8353 49.4032 33.1653C50.0039 32.6135 50.4901 32.0041 50.8619 31.3381C51.2338 30.672 51.4982 29.9374 51.6549 29.1339C52.034 27.1829 51.7478 25.6633 50.797 24.575C49.8454 23.4863 48.3327 22.9422 46.2587 22.9422H39.3647L36.1655 39.3998Z" fill="black"/>
</svg>
