<svg width="60" height="60" viewBox="0 0 60 60" fill="none" xmlns="http://www.w3.org/2000/svg">
<g clip-path="url(#clip0_65_1008)">
<path d="M51.6647 33.667C49.5715 33.6779 47.7523 34.1821 46.2289 34.9273C45.67 33.8204 45.1111 32.8341 45.0124 32.1108C44.9029 31.2669 44.7713 30.7518 44.9029 29.7436C45.0344 28.7353 45.6262 27.2997 45.6152 27.1901C45.6043 27.0805 45.4837 26.5654 44.2782 26.5544C43.0727 26.5435 42.0316 26.7846 41.911 27.1024C41.7904 27.4202 41.5603 28.1435 41.4068 28.8888C41.1986 29.9846 38.9958 33.8971 37.7355 35.9465C37.33 35.1465 36.9793 34.4451 36.9026 33.8861C36.793 33.0423 36.6615 32.5272 36.793 31.519C36.9245 30.5107 37.5163 29.075 37.5053 28.9655C37.4944 28.8559 37.3739 28.3408 36.1684 28.3298C34.9628 28.3189 33.9217 28.5599 33.8011 28.8778C33.6806 29.1956 33.5491 29.9408 33.297 30.6642C33.0449 31.3874 30.1189 37.9192 29.3517 39.6069C28.9571 40.4726 28.6174 41.1631 28.3763 41.6344C28.3763 41.6344 28.3654 41.6672 28.3325 41.722C28.1243 42.1275 28.0037 42.3467 28.0037 42.3467C28.0037 42.3467 28.0037 42.3467 28.0037 42.3577C27.8393 42.6535 27.664 42.9276 27.5763 42.9276C27.5105 42.9276 27.39 42.1385 27.5982 41.0645C28.0366 38.7959 29.0777 35.267 29.0668 35.1465C29.0668 35.0807 29.264 34.467 28.3873 34.1492C27.5324 33.8314 27.2256 34.3574 27.1489 34.3574C27.0722 34.3574 27.0174 34.5437 27.0174 34.5437C27.0174 34.5437 27.9709 30.5765 25.1981 30.5765C23.4666 30.5765 21.0775 32.4724 19.8939 34.1821C19.1486 34.5876 17.5595 35.4534 15.8609 36.3848C15.2143 36.7465 14.5458 37.1082 13.9211 37.4479C13.8773 37.4041 13.8334 37.3493 13.7896 37.3054C10.436 33.7218 4.23314 31.1902 4.49616 26.3791C4.59479 24.6256 5.19755 20.0227 16.4089 14.4335C25.6365 9.88543 32.9792 11.1457 34.2505 13.9403C36.0697 17.9295 30.3161 25.3379 20.7816 26.4119C17.1431 26.8175 15.2362 25.4147 14.754 24.8886C14.2499 24.3407 14.1731 24.3078 13.9868 24.4174C13.68 24.5818 13.8773 25.075 13.9868 25.3599C14.2718 26.1051 15.4444 27.4202 17.4281 28.0668C19.1815 28.6367 23.4447 28.9545 28.6064 26.9599C34.382 24.7243 38.8972 18.5104 37.5711 13.3047C36.245 8.02237 27.4777 6.27985 19.1815 9.22789C14.2499 10.9814 8.90178 13.7431 5.05508 17.3377C0.485079 21.6118 -0.238229 25.327 0.0576695 26.8832C1.12072 32.4067 8.73738 36.0013 11.7841 38.6644C11.6306 38.7521 11.4881 38.8288 11.3676 38.8945C9.84426 39.6507 4.03587 42.6864 2.58925 45.8975C0.945366 49.5359 2.85227 52.1443 4.11259 52.495C8.02506 53.5799 12.047 51.6292 14.206 48.4072C16.365 45.1851 16.102 40.9987 15.1047 39.0808C15.0937 39.0589 15.0828 39.037 15.0608 39.0151C15.4554 38.785 15.8609 38.5438 16.2554 38.3137C17.0335 37.8534 17.8007 37.426 18.4582 37.0753C18.0856 38.0945 17.8116 39.311 17.6801 41.0645C17.5157 43.1248 18.3596 45.7989 19.4665 46.851C19.9597 47.3112 20.5405 47.3222 20.9131 47.3222C22.2063 47.3222 22.7871 46.2482 23.4337 44.9769C24.2228 43.4207 24.9351 41.6124 24.9351 41.6124C24.9351 41.6124 24.0474 46.5002 26.4584 46.5002C27.3352 46.5002 28.2229 45.3605 28.6174 44.7796C28.6174 44.7906 28.6174 44.7906 28.6174 44.7906C28.6174 44.7906 28.6393 44.7577 28.6832 44.681C28.7708 44.5386 28.8257 44.4509 28.8257 44.4509C28.8257 44.4509 28.8257 44.4399 28.8257 44.4289C29.1764 43.8153 29.9654 42.4234 31.1381 40.111C32.6504 37.1301 34.108 33.404 34.108 33.404C34.108 33.404 34.2395 34.3136 34.6888 35.826C34.9519 36.7136 35.4998 37.689 35.9382 38.6315C35.5875 39.1247 35.3683 39.3986 35.3683 39.3986C35.3683 39.3986 35.3683 39.3987 35.3793 39.4096C35.0944 39.7822 34.7875 40.1877 34.4477 40.5823C33.2532 42.007 31.8285 43.6399 31.6312 44.1111C31.4011 44.6701 31.4559 45.0756 31.8943 45.4044C32.2121 45.6454 32.782 45.6783 33.3628 45.6454C34.4368 45.5687 35.1929 45.3057 35.5656 45.1413C36.1464 44.933 36.8259 44.6152 37.4615 44.144C38.6342 43.2783 39.3465 42.0399 39.2807 40.4069C39.2479 39.5083 38.952 38.6096 38.5903 37.7658C38.6999 37.6123 38.7986 37.4589 38.9081 37.3054C40.7603 34.5985 42.1959 31.6286 42.1959 31.6286C42.1959 31.6286 42.3274 32.5382 42.7768 34.0506C42.9959 34.8177 43.4453 35.6506 43.8398 36.4616C42.0973 37.8753 41.0233 39.5192 40.6397 40.5932C39.9493 42.5878 40.4863 43.4865 41.5055 43.6947C41.9658 43.7933 42.6233 43.5741 43.1056 43.3659C43.7192 43.1686 44.4425 42.8289 45.133 42.3248C46.3056 41.459 47.4344 40.2535 47.3687 38.6206C47.3358 37.8753 47.1385 37.141 46.8646 36.4287C48.344 35.815 50.251 35.4753 52.6839 35.7602C57.9005 36.3739 58.9307 39.6288 58.7334 40.9987C58.5361 42.3686 57.4402 43.1138 57.0785 43.344C56.7169 43.5741 56.5964 43.6508 56.6292 43.8153C56.6731 44.0563 56.8484 44.0453 57.1553 44.0015C57.5827 43.9248 59.8951 42.8947 59.9937 40.374C60.1584 37.152 57.0895 33.6341 51.6647 33.667ZM11.4224 47.2345C9.69084 49.1195 7.2798 49.8319 6.23868 49.2291C5.12084 48.5825 5.5592 45.7989 7.68528 43.8043C8.97846 42.5878 10.6443 41.459 11.7512 40.7686C12.0032 40.6152 12.3758 40.396 12.8252 40.122C12.9019 40.0782 12.9457 40.0562 12.9457 40.0562C13.0334 40.0014 13.1211 39.9466 13.2088 39.8918C13.9868 42.7412 13.2416 45.2509 11.4224 47.2345ZM24.0255 38.6644C23.4227 40.1329 22.1624 43.8919 21.3953 43.6837C20.7377 43.5084 20.3323 40.659 21.2638 37.8424C21.7351 36.4287 22.7323 34.741 23.3132 34.0834C24.2557 33.0313 25.2968 32.6806 25.5488 33.1081C25.8667 33.667 24.3981 37.7438 24.0255 38.6644ZM34.4258 43.6399C34.1738 43.7714 33.9326 43.8591 33.8231 43.7933C33.7463 43.7495 33.9326 43.5741 33.9326 43.5741C33.9326 43.5741 35.2368 42.1714 35.7519 41.5357C36.0478 41.1631 36.3985 40.7247 36.7711 40.2316C36.7711 40.2754 36.7711 40.3302 36.7711 40.374C36.7711 42.0508 35.1491 43.1796 34.4258 43.6399ZM42.448 41.8097C42.2617 41.6782 42.2945 41.2398 42.9192 39.8699C43.1603 39.3329 43.7302 38.4343 44.7056 37.5685C44.8152 37.9192 44.8919 38.2589 44.881 38.5767C44.87 40.6918 43.3576 41.4809 42.448 41.8097Z" fill="#CD6799"/>
</g>
<defs>
<clipPath id="clip0_65_1008">
<rect width="60" height="60" fill="white"/>
</clipPath>
</defs>
</svg>
