<svg width="60" height="60" viewBox="0 0 60 60" fill="none" xmlns="http://www.w3.org/2000/svg">
<g clip-path="url(#clip0_65_1012)">
<path d="M4.26441 29.9996C4.26441 40.1868 10.1844 48.9898 18.7689 53.1621L6.49257 19.5258C5.0209 22.8213 4.26163 26.3904 4.26441 29.9996ZM47.374 28.7009C47.374 25.5203 46.2315 23.3175 45.2517 21.6031C43.9471 19.4832 42.7248 17.6879 42.7248 15.568C42.7248 13.2022 44.5185 11 47.0459 11C47.16 11 47.2683 11.0142 47.3799 11.0206C42.8007 6.82583 36.7005 4.26465 30.0003 4.26465C21.0093 4.26465 13.0992 8.87765 8.49741 15.8648C9.10125 15.8829 9.67077 15.8951 10.1536 15.8951C12.8455 15.8951 17.0124 15.5685 17.0124 15.5685C18.3997 15.4867 18.5632 17.5244 17.1779 17.6884C17.1779 17.6884 15.7832 17.8524 14.2318 17.9337L23.6038 45.8102L29.2363 28.9188L25.2262 17.9333C23.8403 17.852 22.5274 17.6879 22.5274 17.6879C21.1406 17.6066 21.3031 15.4862 22.69 15.568C22.69 15.568 26.9401 15.8946 29.469 15.8946C32.1604 15.8946 36.3277 15.568 36.3277 15.568C37.7161 15.4862 37.8792 17.5239 36.4928 17.6879C36.4928 17.6879 35.0956 17.852 33.5472 17.9333L42.8477 45.5986L45.4142 37.0205C46.5273 33.4608 47.374 30.9041 47.374 28.7009Z" fill="#00749A"/>
<path d="M30.4517 32.2508L22.73 54.688C25.0907 55.3837 27.539 55.737 30.0002 55.7369C32.9972 55.7369 35.8712 55.2183 38.5465 54.2781C38.4747 54.1658 38.4134 54.0471 38.3633 53.9236L30.4517 32.2508ZM52.5824 17.6522C52.6931 18.472 52.7558 19.3524 52.7558 20.2986C52.7558 22.9101 52.268 25.8459 50.7989 29.5167L42.9377 52.2453C50.5888 47.7837 55.7351 39.4944 55.7351 29.9996C55.742 25.6838 54.6575 21.4364 52.5824 17.6522Z" fill="#00749A"/>
<path d="M30.0003 0.000488281C13.4585 0.000488281 0 13.458 0 29.9997C0 46.5434 13.4581 60.0008 30.0003 60.0008C46.5415 60.0008 60.0018 46.5439 60.0018 29.9997C60.0018 13.458 46.5415 0.000488281 30.0003 0.000488281ZM30.0003 58.6254C14.2171 58.6254 1.37558 45.7839 1.37558 29.9997C1.37558 14.2171 14.2166 1.37655 30.0003 1.37655C45.783 1.37655 58.6235 14.2171 58.6235 29.9997C58.6235 45.7839 45.7825 58.6254 30.0003 58.6254Z" fill="#00749A"/>
</g>
<defs>
<clipPath id="clip0_65_1012">
<rect width="60" height="60" fill="white"/>
</clipPath>
</defs>
</svg>
