<svg width="16" height="17" viewBox="0 0 16 17" fill="none" xmlns="http://www.w3.org/2000/svg">
<path d="M8.84586 2.94609C9.04589 2.74613 9.31715 2.63379 9.59999 2.63379C9.88283 2.63379 10.1541 2.74613 10.3541 2.94609L15.1541 7.7461C15.3541 7.94612 15.4664 8.21739 15.4664 8.50023C15.4664 8.78307 15.3541 9.05433 15.1541 9.25436L10.3541 14.0544C10.153 14.2487 9.88351 14.3562 9.60383 14.3537C9.32415 14.3513 9.05662 14.2391 8.85885 14.0414C8.66108 13.8436 8.5489 13.5761 8.54647 13.2964C8.54404 13.0167 8.65156 12.7473 8.84586 12.5461L11.7333 9.5669H1.59999C1.31709 9.5669 1.04578 9.45451 0.845745 9.25448C0.645706 9.05444 0.533325 8.78313 0.533325 8.50023C0.533325 8.21733 0.645706 7.94602 0.845745 7.74598C1.04578 7.54594 1.31709 7.43356 1.59999 7.43356H11.7333L8.84586 4.45436C8.64589 4.25433 8.53355 3.98307 8.53355 3.70023C8.53355 3.41739 8.64589 3.14612 8.84586 2.94609Z" fill="black"/>
</svg>
