<svg width="30" height="31" viewBox="0 0 30 31" fill="none" xmlns="http://www.w3.org/2000/svg">
<path d="M15 17.25L8.875 23.375C8.64583 23.6042 8.35417 23.7188 8 23.7188C7.64583 23.7188 7.35417 23.6042 7.125 23.375C6.89583 23.1458 6.78125 22.8542 6.78125 22.5C6.78125 22.1458 6.89583 21.8542 7.125 21.625L13.25 15.5L7.125 9.375C6.89583 9.14583 6.78125 8.85417 6.78125 8.5C6.78125 8.14583 6.89583 7.85417 7.125 7.625C7.35417 7.39583 7.64583 7.28125 8 7.28125C8.35417 7.28125 8.64583 7.39583 8.875 7.625L15 13.75L21.125 7.625C21.3542 7.39583 21.6458 7.28125 22 7.28125C22.3542 7.28125 22.6458 7.39583 22.875 7.625C23.1042 7.85417 23.2188 8.14583 23.2188 8.5C23.2188 8.85417 23.1042 9.14583 22.875 9.375L16.75 15.5L22.875 21.625C23.1042 21.8542 23.2188 22.1458 23.2188 22.5C23.2188 22.8542 23.1042 23.1458 22.875 23.375C22.6458 23.6042 22.3542 23.7188 22 23.7188C21.6458 23.7188 21.3542 23.6042 21.125 23.375L15 17.25Z" fill="white"/>
</svg>
